/* XPM */
static char * collectible_xpm[] = {
"32 32 4 1",
" 	c #D89E58",
".	c #000000",
"+	c #FDFF00",
"@	c #FFA900",
"                                ",
"                                ",
"                                ",
"                                ",
"                                ",
"                                ",
"                                ",
"                .               ",
"               .+.              ",
"              .++@.             ",
"              .++@.             ",
"              .++@.             ",
"          ....++++@....         ",
"         .+++++++++@@@@.        ",
"          .+++++++++@@.         ",
"           .@@++++@@@.          ",
"            .@+++++@.           ",
"            .+++++++.           ",
"           .@+++@+++@.          ",
"           .@++@.@++@.          ",
"           .@+@. .@+@.          ",
"           .@@.   .@@.          ",
"           .@.     .@.          ",
"            .       .           ",
"                                ",
"                                ",
"                                ",
"                                ",
"                                ",
"                                ",
"                                ",
"                                "};
