/* XPM */
static char * exit_xpm[] = {
"32 32 634 2",
"  	c #2F2C2D",
". 	c #3E3C3A",
"+ 	c #636261",
"@ 	c #666564",
"# 	c #565656",
"$ 	c #363534",
"% 	c #2B2117",
"& 	c #251D14",
"* 	c #2A2217",
"= 	c #231C13",
"- 	c #241C12",
"; 	c #241A0E",
"> 	c #1F1810",
", 	c #150E07",
"' 	c #241C14",
") 	c #1F1811",
"! 	c #1E1811",
"~ 	c #272015",
"{ 	c #281F16",
"] 	c #272625",
"^ 	c #2E2D2C",
"/ 	c #545453",
"( 	c #383633",
"_ 	c #262524",
": 	c #585654",
"< 	c #686867",
"[ 	c #565555",
"} 	c #302E2E",
"| 	c #242322",
"1 	c #1D1610",
"2 	c #1A140D",
"3 	c #221B13",
"4 	c #281E14",
"5 	c #261C0F",
"6 	c #2C2011",
"7 	c #292015",
"8 	c #1E140A",
"9 	c #1C130A",
"0 	c #281D10",
"a 	c #2D2319",
"b 	c #2A2117",
"c 	c #231B13",
"d 	c #201912",
"e 	c #1C160F",
"f 	c #201F1E",
"g 	c #2D2B2B",
"h 	c #525252",
"i 	c #656564",
"j 	c #565452",
"k 	c #5E5C5B",
"l 	c #403F3F",
"m 	c #1B150D",
"n 	c #19130C",
"o 	c #1D160E",
"p 	c #221A11",
"q 	c #251B0E",
"r 	c #302313",
"s 	c #322413",
"t 	c #2C2217",
"u 	c #31261A",
"v 	c #26190D",
"w 	c #25180D",
"x 	c #2F2418",
"y 	c #332514",
"z 	c #3E3022",
"A 	c #33271A",
"B 	c #2D2216",
"C 	c #23190E",
"D 	c #251C12",
"E 	c #1E170F",
"F 	c #18120C",
"G 	c #130E08",
"H 	c #150F08",
"I 	c #282726",
"J 	c #3A3938",
"K 	c #51504E",
"L 	c #2A2826",
"M 	c #1C1F1D",
"N 	c #262928",
"O 	c #060807",
"P 	c #080502",
"Q 	c #130C06",
"R 	c #170F08",
"S 	c #1B1209",
"T 	c #1F150B",
"U 	c #23170C",
"V 	c #271A0D",
"W 	c #281A0E",
"X 	c #2A1C0E",
"Y 	c #2B1D0F",
"Z 	c #2B1C0F",
"` 	c #43311A",
" .	c #22160B",
"..	c #1F140B",
"+.	c #181008",
"@.	c #130D07",
"#.	c #393D3B",
"$.	c #1A1F1D",
"%.	c #050403",
"&.	c #1D1D1C",
"*.	c #171514",
"=.	c #19120A",
"-.	c #121514",
";.	c #1E201E",
">.	c #080908",
",.	c #1E1710",
"'.	c #473522",
").	c #443725",
"!.	c #392916",
"~.	c #55422F",
"{.	c #83643D",
"].	c #8F6D3F",
"^.	c #84663E",
"/.	c #745738",
"(.	c #755838",
"_.	c #7B5F40",
":.	c #906F40",
"<.	c #906E3F",
"[.	c #8F6E3F",
"}.	c #785C3E",
"|.	c #73593C",
"1.	c #56462E",
"2.	c #3E2D18",
"3.	c #443526",
"4.	c #59442A",
"5.	c #575B58",
"6.	c #272E2C",
"7.	c #0D0B08",
"8.	c #0C0905",
"9.	c #0C0B0B",
"0.	c #18120D",
"a.	c #161918",
"b.	c #343836",
"c.	c #0D0F0E",
"d.	c #1F1910",
"e.	c #483B27",
"f.	c #675035",
"g.	c #473623",
"h.	c #291B0E",
"i.	c #7E613B",
"j.	c #6F5335",
"k.	c #634C34",
"l.	c #705335",
"m.	c #55432F",
"n.	c #5C4A32",
"o.	c #644B2D",
"p.	c #4A3825",
"q.	c #765A37",
"r.	c #654F34",
"s.	c #5C5753",
"t.	c #38403C",
"u.	c #12100D",
"v.	c #0E0A07",
"w.	c #0D0A06",
"x.	c #130E0A",
"y.	c #1E2322",
"z.	c #4E5653",
"A.	c #101714",
"B.	c #251E14",
"C.	c #58442F",
"D.	c #5C4730",
"E.	c #513F2C",
"F.	c #795C38",
"G.	c #5E4932",
"H.	c #57462F",
"I.	c #58472F",
"J.	c #513F2D",
"K.	c #7A5D38",
"L.	c #5D4731",
"M.	c #8A938E",
"N.	c #41504B",
"O.	c #100F0C",
"P.	c #13100B",
"Q.	c #110D09",
"R.	c #1B160F",
"S.	c #5A5D5D",
"T.	c #8B8B89",
"U.	c #211C1A",
"V.	c #52422C",
"W.	c #433321",
"X.	c #695237",
"Y.	c #53432D",
"Z.	c #59452F",
"`.	c #4D3C2A",
" +	c #4D3C2B",
".+	c #5A4630",
"++	c #25190D",
"@+	c #6A5337",
"#+	c #706D6B",
"$+	c #AD9D9A",
"%+	c #382D26",
"&+	c #292016",
"*+	c #5C5F60",
"=+	c #B4B4B3",
"-+	c #120F0E",
";+	c #130F0A",
">+	c #4E3F2A",
",+	c #483828",
"'+	c #3F3020",
")+	c #634D33",
"!+	c #54412C",
"~+	c #493928",
"{+	c #55422D",
"]+	c #56422D",
"^+	c #4A3928",
"/+	c #4F402B",
"(+	c #413120",
"_+	c #24170C",
":+	c #685F5C",
"<+	c #988C88",
"[+	c #2D2625",
"}+	c #2D2418",
"|+	c #3C2C1C",
"1+	c #4E4543",
"2+	c #95837D",
"3+	c #000000",
"4+	c #372F2D",
"5+	c #544640",
"6+	c #121411",
"7+	c #1D1B18",
"8+	c #23201D",
"9+	c #232320",
"0+	c #1F1D18",
"a+	c #2C2F2D",
"b+	c #262623",
"c+	c #2D3431",
"d+	c #2A2F2C",
"e+	c #2B2F2D",
"f+	c #2E3836",
"g+	c #303837",
"h+	c #303936",
"i+	c #2F3633",
"j+	c #2E3735",
"k+	c #323B39",
"l+	c #2C322F",
"m+	c #242825",
"n+	c #171D1B",
"o+	c #706B6B",
"p+	c #221E1C",
"q+	c #3F322E",
"r+	c #6D544E",
"s+	c #27221C",
"t+	c #100C09",
"u+	c #362A1E",
"v+	c #3D3021",
"w+	c #4D423E",
"x+	c #947D77",
"y+	c #886E67",
"z+	c #8F7772",
"A+	c #9A7C76",
"B+	c #312F29",
"C+	c #4D4842",
"D+	c #4F433E",
"E+	c #60564F",
"F+	c #615952",
"G+	c #54463C",
"H+	c #504137",
"I+	c #514136",
"J+	c #8B928D",
"K+	c #74766D",
"L+	c #919D9A",
"M+	c #8F9A96",
"N+	c #8D9793",
"O+	c #828681",
"P+	c #89918C",
"Q+	c #8F9B97",
"R+	c #6C716B",
"S+	c #4F4A43",
"T+	c #272924",
"U+	c #B9B4B0",
"V+	c #97837C",
"W+	c #917B76",
"X+	c #AE9E99",
"Y+	c #2B2826",
"Z+	c #100D09",
"`+	c #34281A",
" @	c #3D3121",
".@	c #2E2826",
"+@	c #3B3331",
"@@	c #382F2D",
"#@	c #3C312F",
"$@	c #322F2D",
"%@	c #0C0F0D",
"&@	c #0F100F",
"*@	c #0F0F0D",
"=@	c #0F0D0B",
"-@	c #0E0B09",
";@	c #141413",
">@	c #11110F",
",@	c #11110D",
"'@	c #181D1B",
")@	c #1B2221",
"!@	c #1C2321",
"~@	c #1C2220",
"{@	c #1C2121",
"]@	c #1B2323",
"^@	c #1A211F",
"/@	c #111211",
"(@	c #0E0E0D",
"_@	c #0C0D0B",
":@	c #4B4B4B",
"<@	c #4D4B49",
"[@	c #39312F",
"}@	c #49413F",
"|@	c #1B1816",
"1@	c #0F0C08",
"2@	c #3C2F21",
"3@	c #382C1F",
"4@	c #2A2523",
"5@	c #3C3330",
"6@	c #1C1817",
"7@	c #211F1F",
"8@	c #353536",
"9@	c #101412",
"0@	c #101110",
"a@	c #0D0D0A",
"b@	c #0E0E0B",
"c@	c #0B0A08",
"d@	c #0E0D0B",
"e@	c #0F0D0C",
"f@	c #10100F",
"g@	c #141816",
"h@	c #151819",
"i@	c #151A19",
"j@	c #161A19",
"k@	c #151817",
"l@	c #151917",
"m@	c #141817",
"n@	c #111413",
"o@	c #131615",
"p@	c #0F1514",
"q@	c #383637",
"r@	c #181613",
"s@	c #3A3231",
"t@	c #3A3432",
"u@	c #1F1F1C",
"v@	c #0F0B08",
"w@	c #3B2E20",
"x@	c #3A413F",
"y@	c #626965",
"z@	c #101312",
"A@	c #1B150F",
"B@	c #3F3121",
"C@	c #3A2F1F",
"D@	c #2B1F11",
"E@	c #1A1109",
"F@	c #302418",
"G@	c #372B1E",
"H@	c #302518",
"I@	c #4D4A45",
"J@	c #151311",
"K@	c #2C2116",
"L@	c #5E6864",
"M@	c #0E1412",
"N@	c #140E08",
"O@	c #191008",
"P@	c #291E10",
"Q@	c #191009",
"R@	c #2D2317",
"S@	c #5E6461",
"T@	c #303C38",
"U@	c #0C0B08",
"V@	c #626666",
"W@	c #777776",
"X@	c #171413",
"Y@	c #0B0804",
"Z@	c #464443",
"`@	c #6F6664",
" #	c #221B18",
".#	c #0C0804",
"+#	c #4C4E4F",
"@#	c #7B7B7B",
"##	c #0C0A09",
"$#	c #120E08",
"%#	c #473720",
"&#	c #42331F",
"*#	c #3D2F20",
"=#	c #271E13",
"-#	c #30271A",
";#	c #160E07",
">#	c #3E3020",
",#	c #493820",
"'#	c #44341F",
")#	c #3B2C1C",
"!#	c #403A39",
"~#	c #5F5754",
"{#	c #1E1917",
"]#	c #0C0A06",
"^#	c #140D07",
"/#	c #352F2E",
"(#	c #5C514D",
"_#	c #211C1B",
":#	c #322A26",
"<#	c #0B0C0A",
"[#	c #12100E",
"}#	c #151411",
"|#	c #151513",
"1#	c #13120F",
"2#	c #1A1D1B",
"3#	c #171715",
"4#	c #1B1F1E",
"5#	c #191C1A",
"6#	c #1A1C1B",
"7#	c #1D2221",
"8#	c #1C211F",
"9#	c #1C2120",
"0#	c #1B1E1C",
"a#	c #161816",
"b#	c #0E1110",
"c#	c #434040",
"d#	c #151211",
"e#	c #261E1C",
"f#	c #423330",
"g#	c #181511",
"h#	c #0E0A06",
"i#	c #251C13",
"j#	c #120C06",
"k#	c #2F2826",
"l#	c #584A47",
"m#	c #51413D",
"n#	c #554643",
"o#	c #5B4946",
"p#	c #1D1C18",
"q#	c #2E2A27",
"r#	c #2F2825",
"s#	c #39332F",
"t#	c #393530",
"u#	c #322A24",
"v#	c #302721",
"w#	c #302720",
"x#	c #525653",
"y#	c #454540",
"z#	c #565D5B",
"A#	c #545B59",
"B#	c #535957",
"C#	c #4D504D",
"D#	c #555C5A",
"E#	c #40433F",
"F#	c #2F2C27",
"G#	c #171815",
"H#	c #6D6A67",
"I#	c #594D49",
"J#	c #554945",
"K#	c #675D5A",
"L#	c #1A1717",
"M#	c #0A0805",
"N#	c #231B11",
"O#	c #110B06",
"P#	c #1B1716",
"Q#	c #201B1A",
"R#	c #231D1B",
"S#	c #1D1C1A",
"T#	c #070907",
"U#	c #090909",
"V#	c #090908",
"W#	c #090806",
"X#	c #080705",
"Y#	c #0C0C0B",
"Z#	c #0A0A09",
"`#	c #0A0A08",
" $	c #101413",
".$	c #101313",
"+$	c #101414",
"@$	c #0F1312",
"#$	c #0A0B0A",
"$$	c #080808",
"%$	c #070806",
"&$	c #2C2C2C",
"*$	c #2D2C2A",
"=$	c #211D1B",
"-$	c #2A2625",
";$	c #0E0D0C",
">$	c #040302",
",$	c #201810",
"'$	c #100A05",
")$	c #181514",
"!$	c #221D1B",
"~$	c #100E0D",
"{$	c #131211",
"]$	c #1E1E1F",
"^$	c #090B0A",
"/$	c #090A09",
"($	c #070706",
"_$	c #080806",
":$	c #060504",
"<$	c #080807",
"[$	c #0B0D0D",
"}$	c #0C0E0E",
"|$	c #0C0E0D",
"1$	c #0A0C0B",
"2$	c #0B0D0C",
"3$	c #090C0B",
"4$	c #201F1F",
"5$	c #211D1C",
"6$	c #211E1D",
"7$	c #1B130A",
"8$	c #0E0905",
"9$	c #3D4040",
"0$	c #4B4B4A",
"a$	c #231B12",
"b$	c #211A12",
"c$	c #1B140D",
"d$	c #0F0A05",
"e$	c #281E13",
"f$	c #241C13",
"g$	c #211B12",
"h$	c #2D2B2A",
"i$	c #46403F",
"j$	c #1A1612",
"k$	c #1B150E",
"l$	c #0D0904",
"m$	c #2F3031",
"n$	c #4C4C4C",
"o$	c #080706",
"p$	c #0E0B07",
"q$	c #1E1810",
"r$	c #201911",
"s$	c #261D14",
"t$	c #241B11",
"u$	c #18130C",
"v$	c #0D0905",
"w$	c #211911",
"x$	c #282423",
"y$	c #3B3634",
"z$	c #161210",
"A$	c #201C1B",
"B$	c #37302E",
"C$	c #141110",
"D$	c #060706",
"E$	c #0B0A09",
"F$	c #0D0C0A",
"G$	c #0D0D0C",
"H$	c #0B0B09",
"I$	c #0F1110",
"J$	c #111414",
"K$	c #121515",
"L$	c #101211",
"M$	c #0D0E0D",
"N$	c #080B0A",
"O$	c #292727",
"P$	c #0D0B0A",
"Q$	c #171311",
"R$	c #291F1D",
"S$	c #13100D",
"T$	c #110D08",
"U$	c #1A140E",
"V$	c #0A0703",
"W$	c #1B1715",
"X$	c #312A28",
"Y$	c #2D2522",
"Z$	c #302826",
"`$	c #342A28",
" %	c #11100E",
".%	c #1B1917",
"+%	c #211F1C",
"@%	c #1D1815",
"#%	c #1C1613",
"$%	c #1C1713",
"%%	c #303231",
"&%	c #292926",
"*%	c #333736",
"=%	c #323634",
"-%	c #313533",
";%	c #2D2F2D",
">%	c #303331",
",%	c #262826",
"'%	c #1C1A17",
")%	c #0E0F0D",
"!%	c #413F3E",
"~%	c #352E2C",
"{%	c #332B29",
"]%	c #3D3836",
"^%	c #0D0A07",
"/%	c #15100A",
"(%	c #080503",
"_%	c #0C0A0A",
":%	c #0F0D0D",
"<%	c #0E0C0C",
"[%	c #100D0C",
"}%	c #030403",
"|%	c #040404",
"1%	c #040403",
"2%	c #060605",
"3%	c #050504",
"4%	c #070808",
"5%	c #080909",
"6%	c #080A09",
"7%	c #080A0A",
"8%	c #070909",
"9%	c #050505",
"0%	c #151515",
"a%	c #161615",
"b%	c #110E0E",
"c%	c #151312",
"d%	c #0A0908",
"e%	c #0F0B06",
"f%	c #050302",
"g%	c #060606",
"h%	c #0A0A0A",
"i%	c #030303",
"j%	c #030302",
"k%	c #020202",
"l%	c #040505",
"m%	c #030504",
"n%	c #0C0C0C",
"o%	c #0D0B0B",
"p%	c #080707",
"q%	c #050402",
"r%	c #090705",
"s%	c #030201",
"t%	c #040201",
"u%	c #040301",
"v%	c #060403",
"w%	c #060503",
"x%	c #020101",
"y%	c #070503",
"z%	c #070603",
"A%	c #020201",
"B%	c #080604",
"C%	c #090704",
"D%	c #010100",
"E%	c #030202",
"F%	c #5E5B5A",
"G%	c #5B5B58",
"H%	c #010000",
"I%	c #010101",
"J%	c #898683",
"K%	c #504F4D",
"L%	c #6A6969",
"M%	c #656362",
"N%	c #6C6C69",
"O%	c #656461",
"P%	c #959594",
"Q%	c #888787",
"  . + @ # $ % & & % * = = - ; > , > = ' ' ) ! ~ { ] ^ / @ + ( _ ",
": < [ } | ) 1 2 3 - 4 ; 5 6 7 8 9 0 a a b c d ' ' ) e f g h i j ",
"k l ^ m n 2 o p q 6 r s t u v v w x y z A B 4 C D E F G H I J K ",
"L M N O P Q R S T U v V W X Y Y Z ` V v w  ...8 9 +.@.#.$.%.&.*.",
"=.-.;.>.,.'.).!.v ~.{.].^./.(._._.:.<.[.}.|.1.2.w 3.4.5.6.7.8.9.",
"0.a.b.c.d.e.f.g.h.i.j.k.j.j.j.j.l.l.l.m.n.n.o.p.W q.r.s.t.u.v.w.",
"x.y.z.A.B.C.D.E.V F.G.G.E.E.E.H.H.I.J.J.J.I.I.J.V K.L.M.N.O.P.Q.",
"R.S.T.U.~ V.V.W.w X.Y.Z.Y.`.Y.Y.Y.`. + + + +.+ +++@+Y.#+$+%+e ) ",
"&+*+=+-+;+>+,+'+U )+!+!+>+>+~+>+>+~+~+{+]+^+/+(+_+]+/+:+<+[+Q.}+",
"|+1+2+3+4+5+6+7+8+9+0+a+b+c+d+e+f+g+h+i+j+k+l+m+n+o+p+q+r+s+t+u+",
"v+w+x+y+z+A+B+C+D+E+F+G+H+I+J+K+L+M+N+O+P+Q+R+S+T+U+V+W+X+Y+Z+`+",
" @.@+@@@#@$@%@&@*@=@-@;@>@,@'@)@!@~@{@]@!@^@/@(@_@:@<@[@}@|@1@2@",
"3@4@5@6@7@8@9@0@a@&@b@c@d@e@f@g@h@i@j@k@l@m@n@o@p@q@r@s@t@u@v@w@",
"u+x@y@z@A@B@C@D@E@F@u+u+u+u+u+u+u+u+G@G@G@G@G@D@S H@G@I@t.J@A@G@",
"K@h+L@M@N@0 0 O@O@0 B B 0 B B B B 0 B B P@P@P@Q@Q@P@R@S@T@U@H P@",
"R V@W@X@Y@R R R R R R R R R R R R R R R R R R R R R R Z@`@ #.#+.",
", +#@###$#%#&#&#&#&#&#*#C =#-#; ;#a >#,#,#,#,#'#)#)#'#!#~#{#]#; ",
"^#/#(#3+_#:#<#[#}#|#1#2#3#4#5#6#~@7#7#8#9#y.0#a#b#c#d#e#f#g#h#i#",
"j#k#l#m#n#o#p#q#r#s#t#u#v#w#x#y#z#A#B#C#x#D#E#F#G#H#I#J#K#L#M#N#",
"O#P#p+Q#R#S#T#U#V#W#X#Y#Z#`#b# $ $9@.$+$ $@$#$$$%$&$*$=$-$;$>$,$",
"'$)$!$~${$]$^$/$($V#_$:$_$<$U#[$}$}$c.|$|$[$1$2$3$4$d@5$6$&@>$7$",
"8$9$0$e@Z+a$7 7 a$,.2 b$b$c b$c$d$c e$b$b$f$f$g$g$f$f$h$i$j$1@k$",
"l$m$n$o$p$q$r$s$t$q$A@A@q$q$q$u$v$t$q$r$q$q$r$r$q$q$w$x$y$z$1@n ",
".#A$B$3+C${#D$E$F$G$H$0@(@z@I$0@n@J$-.n@n@K$L$M$N$O$P$Q$R$S$T$U$",
"V$W$X$Y$Z$`$ %.%W$=$+%@%#%$%%%&%*%=%-%;%>%*%,%'%)%!%~%{%]%C$^%/%",
"(%_%:%<%[%G$}%|%|%1%>$2%3%3%4%5%6%5%5%7%6%8%9%|%1%0%a%b%c%d%M#e%",
"f%o$E$3%g%h%}%i%j%i%j%k%j%j%i%l%l%l%9%l%9%l%|%l%m%n%3%o%o%p%q%r%",
"s%s%s%s%s%s%s%s%s%s%s%t%t%t%t%t%t%u%u%u%u%u%u%u%u%u%u%u%u%u%u%u%",
"v%v%w%w%w%v%>$s%x%>$v%w%w%y%y%y%y%z%z%y%y%%.%.>$A%%.B%B%B%C%C%C%",
"k%x%x%A%A%A%A%x%D%s%A%A%A%A%A%s%s%s%s%s%s%s%s%A%D%>$E%E%E%E%E%F%",
"G%3+3+3+3+3+3+3+3+H%3+3+3+D%D%D%I%D%D%D%D%D%D%H%3+I%D%D%D%D%J%K%",
"L%M%N%3+3+3+3+3+3+3+3+3+3+3+3+3+3+3+3+3+3+3+3+3+3+3+3+3+3+O%P%Q%"};
