/* XPM */
static char * start_xpm[] = {
"32 32 10 1",
" 	c #D89E58",
".	c #FAE898",
"+	c #82A368",
"@	c #FAFA82",
"#	c #696A6A",
"$	c #FCA89D",
"%	c #000000",
"&	c #453625",
"*	c #A84111",
"=	c #FFA900",
"                                ",
"                                ",
"                  ..            ",
"                 ....           ",
"               ++....+          ",
"               ++.....          ",
"               .+.....    @     ",
"               .+.....   @@@    ",
"              #.+.....  @ @ @   ",
"              ##$$$$$$ @@@@@@@  ",
"           ...$#$%%$$%  @ @ @   ",
"         +....$#$$$$$$    @     ",
"        .+....$$$$$$$$    @     ",
"       ..+.....$$$$$$$    @     ",
"       ...+....$$$$$$..   &     ",
"      ....+......$$$..++  &     ",
"      .....+..........++  &     ",
"      ......++.......++++ &     ",
"      ........+++++++.++$$$$    ",
"      ................ +$$$$    ",
"      .....***.......  +$$$$    ",
"      .....+..*******    $$     ",
"      .....+.....**..     &     ",
"      ....+......*...     &     ",
"       $$$.......*...     &     ",
"        .........*...     &     ",
"        .............     &     ",
"        .............     &     ",
"        .............     &     ",
"        .............           ",
"         ..........             ",
"                                "};
